<?xml version="1.0" encoding="utf-8"?>
<!-- Generator: Adobe Illustrator 27.2.0, SVG Export Plug-In . SVG Version: 6.00 Build 0)  -->
<svg version="1.1" xmlns="http://www.w3.org/2000/svg" xmlns:xlink="http://www.w3.org/1999/xlink" x="0px" y="0px"
	 viewBox="0 0 1808.37 332.08" style="enable-background:new 0 0 1808.37 332.08;" xml:space="preserve">
<style type="text/css">
	.st0{display:none;}
	.st1{display:inline;fill:#112129;}
	.st2{display:inline;fill:#FFFFFF;}
	.st3{display:inline;}
	.st4{fill:url(#SVGID_1_);}
	.st5{fill:url(#SVGID_00000078038220206641165220000017801479358928517306_);}
	.st6{fill:url(#SVGID_00000069367147707245361070000013255202781727154052_);}
	.st7{fill:url(#SVGID_00000055691385980057607710000003897153391007422129_);}
	.st8{fill:url(#SVGID_00000096748945124637466370000011364149695260884413_);}
	.st9{fill:url(#SVGID_00000011019922137545980340000002396469940071576482_);}
	.st10{display:none;fill:#FFFFFF;}
	.st11{font-family:'Montserrat-Bold';}
	.st12{font-size:442.7772px;}
	.st13{letter-spacing:-22;}
	.st14{fill:url(#SVGID_00000176736834252759967750000011806263531292394913_);}
	.st15{fill:url(#SVGID_00000004543347677511083960000008225847458333920656_);}
	.st16{fill:url(#SVGID_00000125567346929531326180000016502968756917539500_);}
	.st17{fill:url(#SVGID_00000029016655239051962530000003276910374330076808_);}
	.st18{fill:url(#SVGID_00000147192428686664883530000005759508505576029343_);}
	.st19{fill:url(#SVGID_00000021089081404533378470000000829608404689753749_);}
	.st20{display:none;fill:#112129;}
	.st21{fill:#112129;}
</style>
<g id="BACKGROUND" class="st0">
	<rect x="-100.13" y="-830.81" class="st1" width="2000.97" height="2000.97"/>
</g>
<g id="Camada_4" class="st0">
	<rect x="-100.37" y="-830.81" class="st2" width="2000.97" height="2000.97"/>
</g>
<g id="OBJECTS">
	<g class="st0">
		<g class="st3">
			<linearGradient id="SVGID_1_" gradientUnits="userSpaceOnUse" x1="65.1561" y1="-26.9591" x2="191.5936" y2="170.5527">
				<stop  offset="0" style="stop-color:#00D9FF"/>
				<stop  offset="0.9977" style="stop-color:#A600FF"/>
			</linearGradient>
			<polygon class="st4" points="214.12,55.43 115.95,-105.17 95.96,-105.17 95.96,178.72 125.07,178.72 125.07,65.1 191.1,171.53 
				214.12,171.53 			"/>
			
				<linearGradient id="SVGID_00000177483169831097058760000005273348995885565340_" gradientUnits="userSpaceOnUse" x1="174.427" y1="168.8138" x2="-67.1291" y2="-123.9818">
				<stop  offset="0" style="stop-color:#00D9FF"/>
				<stop  offset="0.9977" style="stop-color:#A600FF"/>
			</linearGradient>
			<polygon style="fill:url(#SVGID_00000177483169831097058760000005273348995885565340_);" points="125.14,65.21 125.14,-90.14 
				115.95,-105.17 31.68,-105.17 31.68,198.89 125.07,198.89 125.07,65.1 			"/>
			
				<linearGradient id="SVGID_00000175323978378328829370000010570193930520066442_" gradientUnits="userSpaceOnUse" x1="248.2611" y1="154.5187" x2="376.1951" y2="-48.9787">
				<stop  offset="0" style="stop-color:#00D9FF"/>
				<stop  offset="0.9977" style="stop-color:#A600FF"/>
			</linearGradient>
			<polygon style="fill:url(#SVGID_00000175323978378328829370000010570193930520066442_);" points="214.12,55.43 312.29,-105.17 
				332.28,-105.17 332.28,178.72 303.17,178.72 303.17,65.1 237.14,171.53 214.12,171.53 			"/>
			
				<linearGradient id="SVGID_00000147917701039934191330000001929537599288714637_" gradientUnits="userSpaceOnUse" x1="294.8054" y1="-98.554" x2="411.5169" y2="209.6843">
				<stop  offset="0" style="stop-color:#00D9FF"/>
				<stop  offset="0.9977" style="stop-color:#A600FF"/>
			</linearGradient>
			<polygon style="fill:url(#SVGID_00000147917701039934191330000001929537599288714637_);" points="303.1,65.21 303.1,-90.14 
				312.29,-105.17 396.56,-105.17 396.56,198.89 303.17,198.89 303.17,65.1 			"/>
		</g>
		<g class="st3">
			
				<linearGradient id="SVGID_00000129900726005498603720000010724254279437209779_" gradientUnits="userSpaceOnUse" x1="-224.6932" y1="-88.1399" x2="19.8331" y2="156.3864" gradientTransform="matrix(-1 0 0 1 433.2554 0)">
				<stop  offset="0" style="stop-color:#00D9FF"/>
				<stop  offset="0.9977" style="stop-color:#A600FF"/>
			</linearGradient>
			<path style="fill:url(#SVGID_00000129900726005498603720000010724254279437209779_);" d="M469.54,14.04l-56.47-57.33v-62.99
				h226.75v77.32h-108.6l44.74,45.61v62.99h-40.4c-26.06,0-36.05,7.82-36.05,20.85c0,15.64,16.51,23.46,39.53,23.46
				c25.63,0,55.6-6.95,81.66-22.16l34.75,75.58c-32.58,18.24-78.19,27.37-119.89,27.37c-97.3,0-139-52.13-139-104.25
				C396.56,58.35,421.75,25.78,469.54,14.04z"/>
			
				<linearGradient id="SVGID_00000114062582090985727600000014433308564086109844_" gradientUnits="userSpaceOnUse" x1="-118.1293" y1="-105.5431" x2="-53.9555" y2="-7.9637" gradientTransform="matrix(-1 0 0 1 433.2554 0)">
				<stop  offset="0" style="stop-color:#00D9FF"/>
				<stop  offset="0.9977" style="stop-color:#A600FF"/>
			</linearGradient>
			<polygon style="fill:url(#SVGID_00000114062582090985727600000014433308564086109844_);" points="427.19,-28.95 413.07,-43.29 
				413.07,-106.27 639.81,-106.27 639.81,-28.95 531.22,-28.95 			"/>
		</g>
	</g>
	<text transform="matrix(1 0 0 1 698.9385 327.5414)" class="st10 st11 st12 st13">Mark</text>
	<g>
		<g>
			
				<linearGradient id="SVGID_00000098938436491072428810000007726087266121055146_" gradientUnits="userSpaceOnUse" x1="33.7161" y1="95.5296" x2="160.1536" y2="293.0414">
				<stop  offset="0" style="stop-color:#FFBC00"/>
				<stop  offset="0.9977" style="stop-color:#FF4800"/>
			</linearGradient>
			<polygon style="fill:url(#SVGID_00000098938436491072428810000007726087266121055146_);" points="182.68,177.91 84.51,17.31 
				64.52,17.31 64.52,301.21 93.63,301.21 93.63,187.59 159.66,294.01 182.68,294.01 			"/>
			
				<linearGradient id="SVGID_00000100353387226559299120000004639905143106674306_" gradientUnits="userSpaceOnUse" x1="142.987" y1="291.3025" x2="-98.5691" y2="-1.4931">
				<stop  offset="0" style="stop-color:#FFBC00"/>
				<stop  offset="0.9977" style="stop-color:#FF4800"/>
			</linearGradient>
			<polygon style="fill:url(#SVGID_00000100353387226559299120000004639905143106674306_);" points="93.7,187.7 93.7,32.34 
				84.51,17.31 0.24,17.31 0.24,321.38 93.63,321.38 93.63,187.59 			"/>
			
				<linearGradient id="SVGID_00000039122732005413990790000000023002649121480123_" gradientUnits="userSpaceOnUse" x1="216.8211" y1="277.0074" x2="344.7551" y2="73.51">
				<stop  offset="0" style="stop-color:#FFBC00"/>
				<stop  offset="0.9977" style="stop-color:#FF4800"/>
			</linearGradient>
			<polygon style="fill:url(#SVGID_00000039122732005413990790000000023002649121480123_);" points="182.68,177.91 280.85,17.31 
				300.84,17.31 300.84,301.21 271.73,301.21 271.73,187.59 205.7,294.01 182.68,294.01 			"/>
			
				<linearGradient id="SVGID_00000119809416799436798940000004227544361657077665_" gradientUnits="userSpaceOnUse" x1="263.3654" y1="23.9347" x2="380.077" y2="332.173">
				<stop  offset="0" style="stop-color:#FFBC00"/>
				<stop  offset="0.9977" style="stop-color:#FF4800"/>
			</linearGradient>
			<polygon style="fill:url(#SVGID_00000119809416799436798940000004227544361657077665_);" points="271.66,187.7 271.66,32.34 
				280.85,17.31 365.12,17.31 365.12,321.38 271.73,321.38 271.73,187.59 			"/>
		</g>
		<g>
			
				<linearGradient id="SVGID_00000036253946566216373880000005320523574092591014_" gradientUnits="userSpaceOnUse" x1="-217.3934" y1="34.3488" x2="27.1329" y2="278.8751" gradientTransform="matrix(-1 0 0 1 433.2554 0)">
				<stop  offset="0" style="stop-color:#FFBC00"/>
				<stop  offset="0.9977" style="stop-color:#FF4800"/>
			</linearGradient>
			<path style="fill:url(#SVGID_00000036253946566216373880000005320523574092591014_);" d="M462.24,136.53L405.77,79.2V16.21
				h226.75v77.32h-108.6l44.74,45.61v62.99h-40.4c-26.06,0-36.05,7.82-36.05,20.85c0,15.64,16.51,23.46,39.53,23.46
				c25.63,0,55.6-6.95,81.66-22.16l34.75,75.58c-32.58,18.24-78.19,27.37-119.89,27.37c-97.3,0-139-52.13-139-104.25
				C389.26,180.84,414.45,148.27,462.24,136.53z"/>
			
				<linearGradient id="SVGID_00000026865339989472419480000002806795933291803799_" gradientUnits="userSpaceOnUse" x1="-110.8295" y1="16.9456" x2="-46.6557" y2="114.525" gradientTransform="matrix(-1 0 0 1 433.2554 0)">
				<stop  offset="0" style="stop-color:#FFBC00"/>
				<stop  offset="0.9977" style="stop-color:#FF4800"/>
			</linearGradient>
			<polygon style="fill:url(#SVGID_00000026865339989472419480000002806795933291803799_);" points="419.89,93.54 405.77,79.2 
				405.77,16.21 632.51,16.21 632.51,93.54 523.92,93.54 			"/>
		</g>
	</g>
	<text transform="matrix(1 0 0 1 689.4541 326.407)" class="st20 st11 st12 st13">Mark</text>
	<g>
		<path class="st21" d="M1005.6,328.41l-0.44-185.97l-91.21,153.2h-32.32l-90.77-149.22v181.98h-67.3V18.46h59.33l116.01,192.61
			l114.24-192.61h58.89l0.89,309.94H1005.6z"/>
		<path class="st21" d="M1300.48,113c19.77,17.57,29.67,44.06,29.67,79.48v135.93h-64.65v-29.67
			c-12.99,22.14-37.19,33.21-72.62,33.21c-18.31,0-34.17-3.1-47.6-9.3c-13.44-6.2-23.69-14.76-30.77-25.68
			c-7.08-10.92-10.63-23.31-10.63-37.19c0-22.14,8.34-39.55,25.02-52.25c16.67-12.69,42.43-19.04,77.26-19.04h54.9
			c0-15.05-4.58-26.64-13.73-34.76c-9.15-8.12-22.88-12.18-41.18-12.18c-12.7,0-25.17,1.99-37.41,5.98
			c-12.25,3.98-22.66,9.37-31.22,16.16l-24.8-48.26c12.99-9.15,28.56-16.23,46.71-21.25c18.15-5.02,36.82-7.53,56.01-7.53
			C1252.36,86.65,1280.7,95.44,1300.48,113z M1241.59,277.27c9.15-5.46,15.64-13.5,19.48-24.13v-24.35h-47.38
			c-28.34,0-42.51,9.3-42.51,27.9c0,8.86,3.47,15.87,10.41,21.03c6.93,5.17,16.45,7.75,28.56,7.75
			C1221.96,285.46,1232.44,282.73,1241.59,277.27z"/>
		<path class="st21" d="M1469.84,95.51c14.02-5.9,30.18-8.86,48.48-8.86v63.76c-7.68-0.59-12.84-0.89-15.5-0.89
			c-19.78,0-35.28,5.53-46.49,16.6c-11.22,11.07-16.83,27.67-16.83,49.81v112.47h-69.07V90.19h65.97v31.44
			C1444.67,110.12,1455.82,101.42,1469.84,95.51z"/>
		<path class="st21" d="M1639.65,234.98l-33.21,32.77v60.66h-69.07V-0.13h69.07v185.97l100.95-95.64h82.36l-99.18,100.95
			l108.04,137.26h-83.68L1639.65,234.98z"/>
	</g>
	<g class="st0">
		<path class="st2" d="M1015.36,328.54l-0.44-185.97l-91.21,153.2h-32.32l-90.77-149.22v181.98h-67.3V18.6h59.33l116.01,192.61
			L1022.89,18.6h58.89l0.89,309.94H1015.36z"/>
		<path class="st2" d="M1310.25,113.13c19.77,17.57,29.67,44.06,29.67,79.48v135.93h-64.65v-29.67
			c-12.99,22.14-37.19,33.21-72.62,33.21c-18.31,0-34.17-3.1-47.6-9.3c-13.44-6.2-23.69-14.76-30.77-25.68
			c-7.08-10.92-10.63-23.31-10.63-37.19c0-22.14,8.34-39.55,25.02-52.25c16.67-12.69,42.43-19.04,77.26-19.04h54.9
			c0-15.05-4.58-26.64-13.73-34.76c-9.15-8.12-22.88-12.18-41.18-12.18c-12.7,0-25.17,1.99-37.41,5.98
			c-12.25,3.98-22.66,9.37-31.22,16.16l-24.8-48.26c12.99-9.15,28.56-16.23,46.71-21.25c18.15-5.02,36.82-7.53,56.01-7.53
			C1262.13,86.79,1290.47,95.57,1310.25,113.13z M1251.36,277.4c9.15-5.46,15.64-13.5,19.48-24.13v-24.35h-47.38
			c-28.34,0-42.51,9.3-42.51,27.9c0,8.86,3.47,15.87,10.41,21.03c6.93,5.17,16.45,7.75,28.56,7.75
			C1231.72,285.59,1242.2,282.87,1251.36,277.4z"/>
		<path class="st2" d="M1479.6,95.64c14.02-5.9,30.18-8.86,48.48-8.86v63.76c-7.68-0.59-12.84-0.89-15.5-0.89
			c-19.78,0-35.28,5.53-46.49,16.6c-11.22,11.07-16.83,27.67-16.83,49.81v112.47h-69.07V90.33h65.97v31.44
			C1454.44,110.25,1465.58,101.55,1479.6,95.64z"/>
		<path class="st2" d="M1649.41,235.12l-33.21,32.77v60.66h-69.07V0h69.07v185.97l100.95-95.64h82.36l-99.18,100.95l108.04,137.26
			h-83.68L1649.41,235.12z"/>
	</g>
</g>
</svg>
