<?xml version="1.0" encoding="UTF-8"?>
<svg id="OBJECTS" xmlns="http://www.w3.org/2000/svg" xmlns:xlink="http://www.w3.org/1999/xlink" viewBox="0 0 1810.5 494.14">
  <defs>
    <style>
      .cls-1 {
        fill: url(#Degradado_sin_nombre_3-2);
      }

      .cls-2 {
        letter-spacing: -.05em;
      }

      .cls-3 {
        fill: url(#Degradado_sin_nombre_3);
      }

      .cls-4 {
        letter-spacing: -.05em;
      }

      .cls-5 {
        letter-spacing: -.05em;
      }

      .cls-6 {
        fill: url(#Degradado_sin_nombre_3-3);
      }

      .cls-7 {
        fill: url(#Degradado_sin_nombre_3-5);
      }

      .cls-8 {
        fill: url(#Degradado_sin_nombre_3-6);
      }

      .cls-9 {
        fill: #fff;
        font-family: Montserrat-Bold, Montserrat;
        font-size: 442.78px;
        font-weight: 700;
      }

      .cls-10 {
        fill: url(#Degradado_sin_nombre_3-4);
      }
    </style>
    <linearGradient id="Degradado_sin_nombre_3" data-name="Degradado sin nombre 3" x1="33.48" y1="144.35" x2="159.92" y2="341.86" gradientUnits="userSpaceOnUse">
      <stop offset="0" stop-color="#ffbc00"/>
      <stop offset="1" stop-color="#ff4800"/>
    </linearGradient>
    <linearGradient id="Degradado_sin_nombre_3-2" data-name="Degradado sin nombre 3" x1="142.75" y1="340.12" x2="-98.81" y2="47.32" xlink:href="#Degradado_sin_nombre_3"/>
    <linearGradient id="Degradado_sin_nombre_3-3" data-name="Degradado sin nombre 3" x1="216.58" y1="325.82" x2="344.52" y2="122.33" xlink:href="#Degradado_sin_nombre_3"/>
    <linearGradient id="Degradado_sin_nombre_3-4" data-name="Degradado sin nombre 3" x1="263.13" y1="72.75" x2="379.84" y2="380.99" xlink:href="#Degradado_sin_nombre_3"/>
    <linearGradient id="Degradado_sin_nombre_3-5" data-name="Degradado sin nombre 3" x1="-217.63" y1="83.16" x2="26.89" y2="327.69" gradientTransform="translate(432.78) rotate(-180) scale(1 -1)" xlink:href="#Degradado_sin_nombre_3"/>
    <linearGradient id="Degradado_sin_nombre_3-6" data-name="Degradado sin nombre 3" x1="-111.07" y1="65.76" x2="-46.89" y2="163.34" gradientTransform="translate(432.78) rotate(-180) scale(1 -1)" xlink:href="#Degradado_sin_nombre_3"/>
  </defs>
  <text class="cls-9" transform="translate(698.7 376.36)"><tspan class="cls-2" x="0" y="0">Ma</tspan><tspan class="cls-4" x="651.76" y="0">r</tspan><tspan class="cls-5" x="818.69" y="0">k</tspan></text>
  <g>
    <g>
      <polygon class="cls-3" points="182.44 226.73 84.27 66.13 64.28 66.13 64.28 350.03 93.39 350.03 93.39 236.4 159.42 342.83 182.44 342.83 182.44 226.73"/>
      <polygon class="cls-1" points="93.46 236.51 93.46 81.16 84.27 66.13 0 66.13 0 370.2 93.39 370.2 93.39 236.4 93.46 236.51"/>
      <polygon class="cls-6" points="182.44 226.73 280.61 66.13 300.6 66.13 300.6 350.03 271.49 350.03 271.49 236.4 205.46 342.83 182.44 342.83 182.44 226.73"/>
      <polygon class="cls-10" points="271.42 236.51 271.42 81.16 280.61 66.13 364.88 66.13 364.88 370.2 271.49 370.2 271.49 236.4 271.42 236.51"/>
    </g>
    <g>
      <path class="cls-7" d="m462,185.35l-56.47-57.33v-62.99h226.75v77.32h-108.6s44.74,45.61,44.74,45.61v62.99h-40.4c-26.06,0-36.05,7.82-36.05,20.85,0,15.64,16.51,23.46,39.53,23.46,25.63,0,55.6-6.95,81.66-22.16l34.75,75.58c-32.58,18.24-78.19,27.37-119.89,27.37-97.3,0-139-52.13-139-104.25,0-42.14,25.19-74.71,72.98-86.45Z"/>
      <polygon class="cls-8" points="419.65 142.35 405.53 128.02 405.53 65.03 632.28 65.03 632.28 142.35 523.68 142.35 419.65 142.35"/>
    </g>
  </g>
</svg>